# xmcd
#
# Track frame offsets:
#	150
#	14813
#	28572
#	41983
#	49953
#	60375
#	72278
#	85317
#	117716
#	135269
#	144734
#	161589
#	176484
#	201802
#	221150
#	249803
#	291246
#	311621
#
# Disc length: 4475 seconds
# Revision: 3
# Processed by: cddbd v1.5.2PL0 Copyright (c) Steve Scherf et al.
# Submitted via: dBpowerAMP V12.0
#
DISCID=13117912
DTITLE=Buddy Guy - Can't Quit the Blues, Disc 1
DYEAR=2006
DGENRE=Blues
TTITLE0=The Way You Been Treating Me
TTITLE1=Sit and Cry (The Blues)
TTITLE2=This Is the End
TTITLE3=Untitled Instrumental
TTITLE4=First Time I Met the Blues
TTITLE5=Ten Years Ago
TTITLE6=Let Me Love You Baby
TTITLE7=Stone Crazy
TTITLE8=When My Left Eye Jumps
TTITLE9=Hoodoo Man Blues
TTITLE10=In the Wee Hours
TTITLE11=I Can't Quit the Blues
TTITLE12=One Room Country Shack
TTITLE13=T-Bone Shuffle
TTITLE14=When You See the Tears From My Eyes (Live)
TTITLE15=I Smell a Rat
TTITLE16=She Suits Me to a T
TTITLE17=D. J. Play My Blues
EXTD=
EXTT0=
EXTT1=
EXTT2=
EXTT3=
EXTT4=
EXTT5=
EXTT6=
EXTT7=
EXTT8=
EXTT9=
EXTT10=
EXTT11=
EXTT12=
EXTT13=
EXTT14=
EXTT15=
EXTT16=
EXTT17=
PLAYORDER=
